<svg xmlns="http://www.w3.org/2000/svg" width="186.02" height="38.4" viewBox="0 0 186.02 38.4">
  <g id="apogeelogo" transform="translate(0 0.893)">
    <path id="Path_91" data-name="Path 91" d="M8.36.24A8.041,8.041,0,0,1,4.49-.69,6.941,6.941,0,0,1,1.77-3.27,7.108,7.108,0,0,1,.78-7a7.108,7.108,0,0,1,.99-3.73,6.941,6.941,0,0,1,2.72-2.58,8.083,8.083,0,0,1,3.89-.93,8.159,8.159,0,0,1,3.29.64,6.59,6.59,0,0,1,2.47,1.84L12.06-9.84a4.472,4.472,0,0,0-3.52-1.64,4.674,4.674,0,0,0-2.32.57A4.052,4.052,0,0,0,4.63-9.32,4.674,4.674,0,0,0,4.06-7a4.674,4.674,0,0,0,.57,2.32A4.052,4.052,0,0,0,6.22-3.09a4.674,4.674,0,0,0,2.32.57,4.451,4.451,0,0,0,3.52-1.66l2.08,1.92A6.483,6.483,0,0,1,11.66-.4,8.231,8.231,0,0,1,8.36.24Zm13-11.16A5.6,5.6,0,0,1,25.2-9.73a4.554,4.554,0,0,1,1.34,3.59V0H23.62V-1.34A3.477,3.477,0,0,1,20.34.16a5.091,5.091,0,0,1-2.15-.42A3.206,3.206,0,0,1,16.8-1.42a3.019,3.019,0,0,1-.48-1.68,2.8,2.8,0,0,1,1.13-2.36,5.758,5.758,0,0,1,3.49-.86h2.48a1.988,1.988,0,0,0-.62-1.57,2.731,2.731,0,0,0-1.86-.55,5.431,5.431,0,0,0-1.69.27,4.471,4.471,0,0,0-1.41.73L16.72-9.62a6.758,6.758,0,0,1,2.11-.96A9.452,9.452,0,0,1,21.36-10.92Zm-.24,8.98a2.717,2.717,0,0,0,1.42-.37,2.025,2.025,0,0,0,.88-1.09V-4.5H21.28q-1.92,0-1.92,1.26a1.122,1.122,0,0,0,.47.95A2.117,2.117,0,0,0,21.12-1.94Zm23.02-8.98a4.338,4.338,0,0,1,3.21,1.19,4.849,4.849,0,0,1,1.19,3.57V0H45.42V-5.68a2.915,2.915,0,0,0-.53-1.91,1.863,1.863,0,0,0-1.51-.63,2.225,2.225,0,0,0-1.74.71A3.06,3.06,0,0,0,41-5.4V0H37.88V-5.68q0-2.54-2.04-2.54a2.2,2.2,0,0,0-1.72.71,3.06,3.06,0,0,0-.64,2.11V0H30.36V-10.76h2.98v1.24a3.938,3.938,0,0,1,1.47-1.04,4.948,4.948,0,0,1,1.91-.36,4.626,4.626,0,0,1,2.06.45,3.648,3.648,0,0,1,1.48,1.31,4.414,4.414,0,0,1,1.67-1.3A5.269,5.269,0,0,1,44.14-10.92Zm14.56,0a5.483,5.483,0,0,1,2.73.69,4.955,4.955,0,0,1,1.93,1.94,5.857,5.857,0,0,1,.7,2.91,5.857,5.857,0,0,1-.7,2.91A4.955,4.955,0,0,1,61.43-.53,5.483,5.483,0,0,1,58.7.16a4.156,4.156,0,0,1-3.24-1.3V3.88H52.34V-10.76h2.98v1.24A4.138,4.138,0,0,1,58.7-10.92ZM58.16-2.4a2.6,2.6,0,0,0,1.97-.81,3.019,3.019,0,0,0,.77-2.17,3.019,3.019,0,0,0-.77-2.17,2.6,2.6,0,0,0-1.97-.81,2.6,2.6,0,0,0-1.97.81,3.019,3.019,0,0,0-.77,2.17,3.019,3.019,0,0,0,.77,2.17A2.6,2.6,0,0,0,58.16-2.4Zm19.82-8.36V0H75.02V-1.28A4.138,4.138,0,0,1,73.54-.21a4.656,4.656,0,0,1-1.86.37,4.583,4.583,0,0,1-3.36-1.22,4.863,4.863,0,0,1-1.24-3.62v-6.08H70.2v5.62q0,2.6,2.18,2.6a2.344,2.344,0,0,0,1.8-.73,3.08,3.08,0,0,0,.68-2.17v-5.32ZM85.5.16a10.452,10.452,0,0,1-2.62-.33A6.845,6.845,0,0,1,80.84-1l1.04-2.24a6.545,6.545,0,0,0,1.74.75,7.293,7.293,0,0,0,2,.29q1.98,0,1.98-.98a.694.694,0,0,0-.54-.66,8,8,0,0,0-1.66-.34,16.014,16.014,0,0,1-2.18-.46,3.382,3.382,0,0,1-1.49-.92,2.616,2.616,0,0,1-.63-1.88,2.945,2.945,0,0,1,.59-1.81,3.8,3.8,0,0,1,1.72-1.23,7.346,7.346,0,0,1,2.67-.44,10.479,10.479,0,0,1,2.27.25,6.345,6.345,0,0,1,1.87.69L89.18-7.76a6.209,6.209,0,0,0-3.1-.8,3.154,3.154,0,0,0-1.5.28.823.823,0,0,0-.5.72.715.715,0,0,0,.54.7,9.56,9.56,0,0,0,1.72.38,18.411,18.411,0,0,1,2.16.47,3.245,3.245,0,0,1,1.46.91,2.582,2.582,0,0,1,.62,1.84,2.841,2.841,0,0,1-.6,1.78A3.83,3.83,0,0,1,88.23-.27,7.8,7.8,0,0,1,85.5.16ZM10.88,21H4.38L3.14,24H-.18L6.06,10h3.2l6.26,14h-3.4ZM9.86,18.54,7.64,13.18,5.42,18.54Zm21.68-5.46a4.338,4.338,0,0,1,3.21,1.19,4.849,4.849,0,0,1,1.19,3.57V24H32.82V18.32a2.915,2.915,0,0,0-.53-1.91,1.863,1.863,0,0,0-1.51-.63,2.225,2.225,0,0,0-1.74.71,3.06,3.06,0,0,0-.64,2.11V24H25.28V18.32q0-2.54-2.04-2.54a2.2,2.2,0,0,0-1.72.71,3.06,3.06,0,0,0-.64,2.11V24H17.76V13.24h2.98v1.24a3.938,3.938,0,0,1,1.47-1.04,4.948,4.948,0,0,1,1.91-.36,4.626,4.626,0,0,1,2.06.45,3.648,3.648,0,0,1,1.48,1.31,4.414,4.414,0,0,1,1.67-1.3A5.269,5.269,0,0,1,31.54,13.08Zm14.56,0a5.483,5.483,0,0,1,2.73.69,4.955,4.955,0,0,1,1.93,1.94,5.857,5.857,0,0,1,.7,2.91,5.857,5.857,0,0,1-.7,2.91,4.955,4.955,0,0,1-1.93,1.94,5.483,5.483,0,0,1-2.73.69,4.138,4.138,0,0,1-3.38-1.4V24H39.74V9.16h3.12v5.22A4.156,4.156,0,0,1,46.1,13.08Zm-.54,8.52a2.6,2.6,0,0,0,1.97-.81,3.019,3.019,0,0,0,.77-2.17,3.019,3.019,0,0,0-.77-2.17,2.8,2.8,0,0,0-3.94,0,3.019,3.019,0,0,0-.77,2.17,3.019,3.019,0,0,0,.77,2.17A2.6,2.6,0,0,0,45.56,21.6ZM58.7,13.08a5.6,5.6,0,0,1,3.84,1.19,4.554,4.554,0,0,1,1.34,3.59V24H60.96V22.66a3.477,3.477,0,0,1-3.28,1.5,5.091,5.091,0,0,1-2.15-.42,3.206,3.206,0,0,1-1.39-1.16,3.019,3.019,0,0,1-.48-1.68,2.8,2.8,0,0,1,1.13-2.36,5.758,5.758,0,0,1,3.49-.86h2.48a1.988,1.988,0,0,0-.62-1.57,2.731,2.731,0,0,0-1.86-.55,5.431,5.431,0,0,0-1.69.27,4.471,4.471,0,0,0-1.41.73l-1.12-2.18a6.758,6.758,0,0,1,2.11-.96A9.452,9.452,0,0,1,58.7,13.08Zm-.24,8.98a2.717,2.717,0,0,0,1.42-.37,2.025,2.025,0,0,0,.88-1.09V19.5H58.62q-1.92,0-1.92,1.26a1.122,1.122,0,0,0,.47.95A2.117,2.117,0,0,0,58.46,22.06Zm12.86,2.1a10.452,10.452,0,0,1-2.62-.33A6.845,6.845,0,0,1,66.66,23l1.04-2.24a6.546,6.546,0,0,0,1.74.75,7.293,7.293,0,0,0,2,.29q1.98,0,1.98-.98a.694.694,0,0,0-.54-.66,8,8,0,0,0-1.66-.34,16.014,16.014,0,0,1-2.18-.46,3.382,3.382,0,0,1-1.49-.92,2.616,2.616,0,0,1-.63-1.88,2.945,2.945,0,0,1,.59-1.81,3.8,3.8,0,0,1,1.72-1.23,7.346,7.346,0,0,1,2.67-.44,10.479,10.479,0,0,1,2.27.25,6.345,6.345,0,0,1,1.87.69L75,16.24a6.209,6.209,0,0,0-3.1-.8,3.154,3.154,0,0,0-1.5.28.823.823,0,0,0-.5.72.715.715,0,0,0,.54.7,9.56,9.56,0,0,0,1.72.38,18.411,18.411,0,0,1,2.16.47,3.245,3.245,0,0,1,1.46.91,2.582,2.582,0,0,1,.62,1.84,2.841,2.841,0,0,1-.6,1.78,3.83,3.83,0,0,1-1.75,1.21A7.8,7.8,0,0,1,71.32,24.16Zm11.62,0a10.452,10.452,0,0,1-2.62-.33A6.845,6.845,0,0,1,78.28,23l1.04-2.24a6.546,6.546,0,0,0,1.74.75,7.293,7.293,0,0,0,2,.29q1.98,0,1.98-.98a.694.694,0,0,0-.54-.66,8,8,0,0,0-1.66-.34,16.014,16.014,0,0,1-2.18-.46,3.382,3.382,0,0,1-1.49-.92,2.616,2.616,0,0,1-.63-1.88,2.945,2.945,0,0,1,.59-1.81,3.8,3.8,0,0,1,1.72-1.23,7.346,7.346,0,0,1,2.67-.44,10.479,10.479,0,0,1,2.27.25,6.345,6.345,0,0,1,1.87.69l-1.04,2.22a6.209,6.209,0,0,0-3.1-.8,3.154,3.154,0,0,0-1.5.28.823.823,0,0,0-.5.72.715.715,0,0,0,.54.7,9.56,9.56,0,0,0,1.72.38,18.411,18.411,0,0,1,2.16.47,3.245,3.245,0,0,1,1.46.91,2.582,2.582,0,0,1,.62,1.84,2.841,2.841,0,0,1-.6,1.78,3.83,3.83,0,0,1-1.75,1.21A7.8,7.8,0,0,1,82.94,24.16ZM95.28,13.08a5.6,5.6,0,0,1,3.84,1.19,4.554,4.554,0,0,1,1.34,3.59V24H97.54V22.66a3.477,3.477,0,0,1-3.28,1.5,5.091,5.091,0,0,1-2.15-.42,3.206,3.206,0,0,1-1.39-1.16,3.019,3.019,0,0,1-.48-1.68,2.8,2.8,0,0,1,1.13-2.36,5.758,5.758,0,0,1,3.49-.86h2.48a1.988,1.988,0,0,0-.62-1.57,2.731,2.731,0,0,0-1.86-.55,5.431,5.431,0,0,0-1.69.27,4.471,4.471,0,0,0-1.41.73l-1.12-2.18a6.758,6.758,0,0,1,2.11-.96A9.452,9.452,0,0,1,95.28,13.08Zm-.24,8.98a2.717,2.717,0,0,0,1.42-.37,2.025,2.025,0,0,0,.88-1.09V19.5H95.2q-1.92,0-1.92,1.26a1.122,1.122,0,0,0,.47.95A2.117,2.117,0,0,0,95.04,22.06Zm20.32-12.9V24h-2.98V22.76a4.114,4.114,0,0,1-3.36,1.4,5.587,5.587,0,0,1-2.75-.68,4.869,4.869,0,0,1-1.93-1.94,5.914,5.914,0,0,1-.7-2.92,5.914,5.914,0,0,1,.7-2.92,4.869,4.869,0,0,1,1.93-1.94,5.587,5.587,0,0,1,2.75-.68,4.093,4.093,0,0,1,3.22,1.3V9.16Zm-5.8,12.44a2.607,2.607,0,0,0,1.96-.81,3,3,0,0,0,.78-2.17,3,3,0,0,0-.78-2.17,2.8,2.8,0,0,0-3.94,0,3,3,0,0,0-.78,2.17,3,3,0,0,0,.78,2.17A2.631,2.631,0,0,0,109.56,21.6Zm14.8,2.56a6.452,6.452,0,0,1-3.05-.71,5.278,5.278,0,0,1-2.11-1.97,5.761,5.761,0,0,1,0-5.72,5.278,5.278,0,0,1,2.11-1.97,6.885,6.885,0,0,1,6.09,0,5.3,5.3,0,0,1,2.1,1.97,5.761,5.761,0,0,1,0,5.72,5.3,5.3,0,0,1-2.1,1.97A6.393,6.393,0,0,1,124.36,24.16Zm0-2.56a2.6,2.6,0,0,0,1.97-.81,3.019,3.019,0,0,0,.77-2.17,3.019,3.019,0,0,0-.77-2.17,2.6,2.6,0,0,0-1.97-.81,2.631,2.631,0,0,0-1.98.81,3,3,0,0,0-.78,2.17,3,3,0,0,0,.78,2.17A2.631,2.631,0,0,0,124.36,21.6Zm11.96-6.94a3.469,3.469,0,0,1,1.51-1.18,5.6,5.6,0,0,1,2.19-.4v2.88q-.52-.04-.7-.04a2.86,2.86,0,0,0-2.1.75,3.031,3.031,0,0,0-.76,2.25V24h-3.12V13.24h2.98Z" transform="translate(46 13.347)" fill="#000"/>
    <g id="Group_58" data-name="Group 58">
      <rect id="Rectangle_44" data-name="Rectangle 44" width="10.746" height="4.042" transform="translate(27.107 12.548)" fill="#000"/>
      <rect id="Rectangle_45" data-name="Rectangle 45" width="10.746" height="4.042" transform="translate(27.107 18.787)" fill="#000"/>
      <rect id="Rectangle_46" data-name="Rectangle 46" width="10.746" height="4.042" transform="translate(13.796 18.787)" fill="#000"/>
      <rect id="Rectangle_47" data-name="Rectangle 47" width="10.746" height="4.042" transform="translate(0 18.787)" fill="#000"/>
      <rect id="Rectangle_48" data-name="Rectangle 48" width="10.746" height="4.042" transform="translate(20.451 25.027)" fill="#000"/>
      <rect id="Rectangle_49" data-name="Rectangle 49" width="10.746" height="4.042" transform="translate(7.071 25.027)" fill="#000"/>
      <rect id="Rectangle_50" data-name="Rectangle 50" width="10.746" height="4.042" transform="translate(20.451 31.335)" fill="#000"/>
      <rect id="Rectangle_51" data-name="Rectangle 51" width="10.746" height="4.042" transform="translate(13.796 12.548)" fill="#000"/>
      <rect id="Rectangle_52" data-name="Rectangle 52" width="4.021" height="4.042" transform="translate(33.831 6.239)" fill="#000"/>
      <rect id="Rectangle_53" data-name="Rectangle 53" width="4.021" height="4.042" transform="translate(33.831)" fill="#000"/>
      <rect id="Rectangle_54" data-name="Rectangle 54" width="4.021" height="4.042" transform="translate(0 25.027)" fill="#000"/>
      <rect id="Rectangle_55" data-name="Rectangle 55" width="4.021" height="4.042" transform="translate(6.655 12.548)" fill="#000"/>
      <rect id="Rectangle_56" data-name="Rectangle 56" width="4.021" height="4.042" transform="translate(33.831 25.027)" fill="#000"/>
      <rect id="Rectangle_57" data-name="Rectangle 57" width="4.021" height="4.042" transform="translate(33.831 31.335)" fill="#000"/>
    </g>
  </g>
</svg>
