<svg xmlns="http://www.w3.org/2000/svg" viewBox="2140.168 3078.234 309.766 309.766">
  <defs>
    <style>
      .cls-1 {
        fill: #359af3;
      }

      .cls-2 {
        fill: #04fea0;
      }
    </style>
  </defs>
  <g id="building" transform="translate(2140.168 3078.234)">
    <g id="Group_34" data-name="Group 34" transform="translate(0)">
      <g id="Group_33" data-name="Group 33">
        <rect id="Rectangle_113" data-name="Rectangle 113" class="cls-1" width="21" height="31" transform="translate(170.832 97.766)"/>
        <rect id="Rectangle_114" data-name="Rectangle 114" class="cls-1" width="21" height="31" transform="translate(118.832 97.766)"/>
        <rect id="Rectangle_115" data-name="Rectangle 115" class="cls-1" width="21" height="31" transform="translate(118.832 159.766)"/>
        <rect id="Rectangle_116" data-name="Rectangle 116" class="cls-1" width="21" height="31" transform="translate(169.832 159.766)"/>
        <rect id="Rectangle_117" data-name="Rectangle 117" class="cls-1" width="21" height="31" transform="translate(170.832 35.766)"/>
        <rect id="Rectangle_118" data-name="Rectangle 118" class="cls-1" width="21" height="31" transform="translate(118.832 38.766)"/>
        <rect id="Rectangle_119" data-name="Rectangle 119" class="cls-1" width="21" height="31" transform="translate(37.832 97.766)"/>
        <rect id="Rectangle_120" data-name="Rectangle 120" class="cls-1" width="21" height="31" transform="translate(252.832 99.766)"/>
        <rect id="Rectangle_121" data-name="Rectangle 121" class="cls-1" width="21" height="31" transform="translate(252.832 157.766)"/>
        <rect id="Rectangle_122" data-name="Rectangle 122" class="cls-1" width="21" height="31" transform="translate(252.832 220.766)"/>
        <path id="Path_131" data-name="Path 131" class="cls-2" d="M273.626,273.56,262.533,280,249.3,286.45l-4.41,7.8,4.41,11.194h48.508l6.784-11.194s-3.731-9.5-4.749-9.5H290.01Z"/>
        <path id="Path_84" data-name="Path 84" d="M269.187,477.867H124.63a5.165,5.165,0,0,0-5.163,5.163v10.326a5.163,5.163,0,0,0,10.325,0v-5.163H269.187a5.163,5.163,0,0,0,0-10.326Z" transform="translate(-47.188 -188.752)"/>
        <path id="Path_85" data-name="Path 85" d="M187.733,189.739A5.165,5.165,0,0,0,192.9,194.9h20.651a5.165,5.165,0,0,0,5.163-5.163V158.763a5.165,5.165,0,0,0-5.163-5.163H192.9a5.165,5.165,0,0,0-5.163,5.163v30.977Zm10.326-25.813h10.326v20.651H198.059Z" transform="translate(-74.152 -60.67)"/>
        <path id="Path_86" data-name="Path 86" d="M67.116,102.4H5.163A5.165,5.165,0,0,0,0,107.563V210.818a5.163,5.163,0,0,0,10.325,0V112.726H67.116a5.163,5.163,0,0,0,0-10.326Z" transform="translate(0 -40.447)"/>
        <path id="Path_87" data-name="Path 87" d="M409.6,394.539a5.165,5.165,0,0,0,5.163,5.163h20.651a5.165,5.165,0,0,0,5.163-5.163V363.563a5.165,5.165,0,0,0-5.163-5.163H414.763a5.165,5.165,0,0,0-5.163,5.163Zm10.326-25.813h10.326v20.651H419.926Z" transform="translate(-161.788 -141.564)"/>
        <path id="Path_88" data-name="Path 88" d="M25.814,307.2C.294,307.2,0,373.645,0,374.316a25.858,25.858,0,0,0,20.651,25.292v26.336a5.163,5.163,0,0,0,10.325,0V399.608a25.858,25.858,0,0,0,20.651-25.292C51.627,373.645,51.333,307.2,25.814,307.2Zm0,82.6a15.507,15.507,0,0,1-15.488-15.488c0-25.721,6.908-56.791,15.488-56.791S41.3,348.595,41.3,374.316A15.507,15.507,0,0,1,25.814,389.8Z" transform="translate(0 -121.341)"/>
        <path id="Path_89" data-name="Path 89" d="M77.014,256H56.363a5.165,5.165,0,0,0-5.163,5.163v10.326a5.163,5.163,0,1,0,10.325,0v-5.163H71.851V292.14a5.163,5.163,0,0,0,10.325,0V261.163A5.164,5.164,0,0,0,77.014,256Z" transform="translate(-20.223 -101.117)"/>
        <path id="Path_90" data-name="Path 90" d="M414.763,194.9h20.651a5.165,5.165,0,0,0,5.163-5.163V158.764a5.165,5.165,0,0,0-5.163-5.163H414.763a5.165,5.165,0,0,0-5.163,5.163V189.74A5.165,5.165,0,0,0,414.763,194.9Zm5.163-30.977h10.326v20.651H419.926Z" transform="translate(-161.788 -60.671)"/>
        <path id="Path_91" data-name="Path 91" d="M77.014,153.6H56.363a5.165,5.165,0,0,0-5.163,5.163v30.977a5.165,5.165,0,0,0,5.163,5.163H77.013a5.165,5.165,0,0,0,5.163-5.163V158.763A5.164,5.164,0,0,0,77.014,153.6Zm-5.163,30.977H61.526V163.926H71.851v20.651Z" transform="translate(-20.223 -60.67)"/>
        <path id="Path_92" data-name="Path 92" d="M273.067,189.739a5.165,5.165,0,0,0,5.163,5.163H298.88a5.165,5.165,0,0,0,5.163-5.163V158.763a5.165,5.165,0,0,0-5.163-5.163H278.23a5.165,5.165,0,0,0-5.163,5.163v30.977Zm10.325-25.813h10.326v20.651H283.392V163.926Z" transform="translate(-107.858 -60.67)"/>
        <path id="Path_93" data-name="Path 93" d="M459.65,102.4H397.7a5.163,5.163,0,1,0,0,10.325h56.791V320.186a14.751,14.751,0,0,0-7.816-.718,20.618,20.618,0,0,0-35.995,0,15.18,15.18,0,0,0-2.654-.232,15.488,15.488,0,0,0,0,30.977h41.3a15.507,15.507,0,0,0,15.488-15.488V107.563A5.165,5.165,0,0,0,459.65,102.4ZM449.324,339.887h-41.3a5.163,5.163,0,0,1,0-10.325,5.1,5.1,0,0,1,2.8.842,5.163,5.163,0,0,0,7.827-3.175,10.285,10.285,0,0,1,20.052,0,5.163,5.163,0,0,0,7.827,3.175,5.265,5.265,0,0,1,7.961,4.321A5.172,5.172,0,0,1,449.324,339.887Z" transform="translate(-155.047 -40.447)"/>
        <path id="Path_94" data-name="Path 94" d="M278.23,92.5H298.88a5.165,5.165,0,0,0,5.163-5.163V56.364A5.165,5.165,0,0,0,298.88,51.2H278.23a5.165,5.165,0,0,0-5.163,5.163V87.34A5.165,5.165,0,0,0,278.23,92.5Zm5.163-30.977h10.326V82.177H283.392V61.526Z" transform="translate(-107.859 -20.224)"/>
        <path id="Path_95" data-name="Path 95" d="M273.067,292.139a5.165,5.165,0,0,0,5.163,5.163H298.88a5.165,5.165,0,0,0,5.163-5.163V261.163A5.165,5.165,0,0,0,298.88,256H278.23a5.165,5.165,0,0,0-5.163,5.163v30.977Zm10.325-25.813h10.326v20.651H283.392V266.326Z" transform="translate(-107.858 -101.117)"/>
        <path id="Path_96" data-name="Path 96" d="M192.9,92.5h20.651a5.165,5.165,0,0,0,5.163-5.163V56.364a5.165,5.165,0,0,0-5.163-5.163H192.9a5.165,5.165,0,0,0-5.163,5.163V87.34A5.164,5.164,0,0,0,192.9,92.5Zm5.163-30.977h10.326V82.177H198.059Z" transform="translate(-74.153 -20.224)"/>
        <path id="Path_97" data-name="Path 97" d="M248.963,411.139a5.163,5.163,0,1,0,7.332,0A5.429,5.429,0,0,0,248.963,411.139Z" transform="translate(-97.746 -161.83)"/>
        <path id="Path_98" data-name="Path 98" d="M187.733,292.139A5.165,5.165,0,0,0,192.9,297.3h20.651a5.165,5.165,0,0,0,5.163-5.163V261.163A5.165,5.165,0,0,0,213.547,256H192.9a5.165,5.165,0,0,0-5.163,5.163v30.977Zm10.326-25.813h10.326v20.651H198.059Z" transform="translate(-74.152 -101.117)"/>
        <path id="Path_99" data-name="Path 99" d="M170.667,363.563a5.165,5.165,0,0,0,5.163,5.163h15.488V415.19a5.163,5.163,0,0,0,10.325,0V368.725h41.3V415.19a5.163,5.163,0,0,0,10.325,0V368.725h15.488a5.163,5.163,0,0,0,0-10.325H175.83A5.165,5.165,0,0,0,170.667,363.563Z" transform="translate(-67.412 -141.564)"/>
        <path id="Path_100" data-name="Path 100" d="M409.6,292.139a5.165,5.165,0,0,0,5.163,5.163h20.651a5.165,5.165,0,0,0,5.163-5.163V261.163A5.165,5.165,0,0,0,435.413,256H414.763a5.165,5.165,0,0,0-5.163,5.163Zm10.326-25.813h10.326v20.651H419.926Z" transform="translate(-161.788 -101.117)"/>
        <path id="Path_101" data-name="Path 101" d="M275.928,0H141.7a5.165,5.165,0,0,0-5.163,5.163V273.626a5.163,5.163,0,0,0,10.325,0V10.325H270.765v263.3a5.163,5.163,0,0,0,10.325,0V5.163A5.164,5.164,0,0,0,275.928,0Z" transform="translate(-53.929)"/>
      </g>
    </g>
  </g>
</svg>
