<svg id="Layer_1" data-name="Layer 1" xmlns="http://www.w3.org/2000/svg" width="320" height="369" viewBox="0 0 320 369"><title>building</title><g id="building"><g id="Group_34" data-name="Group 34"><g id="Group_33" data-name="Group 33"><rect id="Rectangle_113" data-name="Rectangle 113" x="175.83" y="153.77" width="21" height="31" fill="#359af3"/><rect id="Rectangle_114" data-name="Rectangle 114" x="123.83" y="153.77" width="21" height="31" fill="#359af3"/><rect id="Rectangle_115" data-name="Rectangle 115" x="123.83" y="215.77" width="21" height="31" fill="#359af3"/><rect id="Rectangle_116" data-name="Rectangle 116" x="174.83" y="215.77" width="21" height="31" fill="#359af3"/><rect id="Rectangle_117" data-name="Rectangle 117" x="175.83" y="91.77" width="21" height="31" fill="#359af3"/><rect id="Rectangle_118" data-name="Rectangle 118" x="123.83" y="94.77" width="21" height="31" fill="#359af3"/><rect id="Rectangle_119" data-name="Rectangle 119" x="42.83" y="153.77" width="21" height="31" fill="#359af3"/><rect id="Rectangle_120" data-name="Rectangle 120" x="257.83" y="155.77" width="21" height="31" fill="#359af3"/><rect id="Rectangle_121" data-name="Rectangle 121" x="257.83" y="213.77" width="21" height="31" fill="#359af3"/><rect id="Rectangle_122" data-name="Rectangle 122" x="257.83" y="276.77" width="21" height="31" fill="#359af3"/><path id="Path_131" data-name="Path 131" d="M278.63,329.56,267.53,336l-13.23,6.45-4.41,7.8,4.41,11.19h48.51l6.78-11.19s-3.73-9.5-4.75-9.5H295Z" fill="#04fea0"/><path id="Path_84" data-name="Path 84" d="M227,345.12H82.44a5.16,5.16,0,0,0-5.16,5.16V360.6a5.16,5.16,0,0,0,10.32,0v-5.16H227a5.16,5.16,0,0,0,0-10.33Z"/><path id="Path_85" data-name="Path 85" d="M118.58,185.07a5.17,5.17,0,0,0,5.17,5.16H144.4a5.17,5.17,0,0,0,5.16-5.16v-31a5.17,5.17,0,0,0-5.16-5.16H123.75a5.17,5.17,0,0,0-5.16,5.16v31Zm10.33-25.81h10.33v20.65H128.91Z"/><path id="Path_86" data-name="Path 86" d="M72.12,118h-62A5.17,5.17,0,0,0,5,123.12V226.37a5.16,5.16,0,0,0,10.32,0V128.28H72.12a5.16,5.16,0,1,0,0-10.33Z"/><path id="Path_87" data-name="Path 87" d="M252.81,309a5.16,5.16,0,0,0,5.16,5.16h20.65a5.16,5.16,0,0,0,5.16-5.16V278a5.16,5.16,0,0,0-5.16-5.16H258a5.16,5.16,0,0,0-5.16,5.16Zm10.33-25.81h10.33v20.65H263.14Z"/><path id="Path_88" data-name="Path 88" d="M30.81,241.86C5.29,241.86,5,308.3,5,309a25.86,25.86,0,0,0,20.65,25.29V360.6a5.16,5.16,0,0,0,10.32,0V334.27A25.86,25.86,0,0,0,56.63,309C56.63,308.3,56.33,241.86,30.81,241.86Zm0,82.6A15.51,15.51,0,0,1,15.33,309c0-25.72,6.91-56.79,15.49-56.79S46.3,283.25,46.3,309a15.51,15.51,0,0,1-15.49,15.48Z"/><path id="Path_89" data-name="Path 89" d="M61.79,210.88H41.14A5.17,5.17,0,0,0,36,216v10.33a5.16,5.16,0,1,0,10.33.14s0-.1,0-.14v-5.16H56.63V247A5.16,5.16,0,0,0,67,247V216A5.16,5.16,0,0,0,61.79,210.88Z"/><path id="Path_90" data-name="Path 90" d="M258,190.23h20.65a5.17,5.17,0,0,0,5.16-5.16v-31a5.17,5.17,0,0,0-5.16-5.16H258a5.17,5.17,0,0,0-5.16,5.16v31A5.16,5.16,0,0,0,258,190.23Zm5.16-31h10.33V179.9H263.14Z"/><path id="Path_91" data-name="Path 91" d="M61.79,148.93H41.14A5.17,5.17,0,0,0,36,154.09v31a5.17,5.17,0,0,0,5.16,5.16H61.79A5.16,5.16,0,0,0,67,185.07v-31A5.16,5.16,0,0,0,61.79,148.93Zm-5.16,31H46.3V159.26H56.63v20.65Z"/><path id="Path_92" data-name="Path 92" d="M170.21,185.07a5.17,5.17,0,0,0,5.16,5.16H196a5.17,5.17,0,0,0,5.16-5.16v-31a5.17,5.17,0,0,0-5.16-5.16H175.37a5.17,5.17,0,0,0-5.16,5.16v31Zm10.33-25.81h10.33v20.65H180.53Z"/><path id="Path_93" data-name="Path 93" d="M309.6,118H247.65a5.16,5.16,0,0,0-.14,10.32h56.93V335.74a14.75,14.75,0,0,0-7.82-.72,20.62,20.62,0,0,0-36,0,15.18,15.18,0,0,0-2.65-.23,15.49,15.49,0,0,0,0,31h41.3a15.51,15.51,0,0,0,15.49-15.49V123.12A5.17,5.17,0,0,0,309.6,118ZM299.28,355.44H258a5.16,5.16,0,0,1,0-10.33,5.1,5.1,0,0,1,2.8.84,5.16,5.16,0,0,0,7.83-3.17,10.28,10.28,0,0,1,20.05,0,5.16,5.16,0,0,0,7.83,3.17,5.26,5.26,0,0,1,8,4.32A5.17,5.17,0,0,1,299.28,355.44Z"/><path id="Path_94" data-name="Path 94" d="M175.37,128.28H196a5.16,5.16,0,0,0,5.16-5.16v-31A5.16,5.16,0,0,0,196,87H175.37a5.16,5.16,0,0,0-5.16,5.16v31A5.16,5.16,0,0,0,175.37,128.28Zm5.16-31h10.33V118H180.53V97.3Z"/><path id="Path_95" data-name="Path 95" d="M170.21,247a5.16,5.16,0,0,0,5.16,5.16H196a5.16,5.16,0,0,0,5.16-5.16V216a5.16,5.16,0,0,0-5.16-5.16H175.37a5.16,5.16,0,0,0-5.16,5.16v31Zm10.33-25.81h10.33v20.65H180.53V221.21Z"/><path id="Path_96" data-name="Path 96" d="M123.75,128.28H144.4a5.16,5.16,0,0,0,5.16-5.16v-31A5.17,5.17,0,0,0,144.4,87H123.75a5.17,5.17,0,0,0-5.16,5.16v31A5.16,5.16,0,0,0,123.75,128.28Zm5.16-31h10.33V118H128.91Z"/><path id="Path_97" data-name="Path 97" d="M156.22,305.31a5.16,5.16,0,1,0,7.33,0A5.43,5.43,0,0,0,156.22,305.31Z"/><path id="Path_98" data-name="Path 98" d="M118.58,247a5.17,5.17,0,0,0,5.17,5.16H144.4a5.17,5.17,0,0,0,5.16-5.16V216a5.17,5.17,0,0,0-5.17-5.16H123.75a5.17,5.17,0,0,0-5.16,5.16v31Zm10.33-25.81h10.33v20.65H128.91Z"/><path id="Path_99" data-name="Path 99" d="M108.26,278a5.17,5.17,0,0,0,5.16,5.16h15.49v46.46a5.16,5.16,0,0,0,10.32,0V283.16h41.3v46.46a5.16,5.16,0,0,0,10.32,0V283.16h15.49a5.16,5.16,0,0,0,0-10.33H113.42A5.17,5.17,0,0,0,108.26,278Z"/><path id="Path_100" data-name="Path 100" d="M252.81,247a5.16,5.16,0,0,0,5.16,5.16h20.65a5.16,5.16,0,0,0,5.16-5.16V216a5.16,5.16,0,0,0-5.16-5.16H258a5.16,5.16,0,0,0-5.16,5.16Zm10.33-25.81h10.33v20.65H263.14Z"/><path id="Path_101" data-name="Path 101" d="M227,56H92.77a5.16,5.16,0,0,0-5.16,5.16V329.63a5.16,5.16,0,0,0,10.32,0V66.32h123.9v263.3a5.16,5.16,0,0,0,10.33,0V61.16A5.16,5.16,0,0,0,227,56Z"/></g></g></g><g id="building-2" data-name="building"><g id="Group_34-2" data-name="Group 34"><g id="Group_33-2" data-name="Group 33"><rect id="Rectangle_113-2" data-name="Rectangle 113" x="175.83" y="153.77" width="21" height="31" fill="#359af3"/><rect id="Rectangle_114-2" data-name="Rectangle 114" x="123.83" y="153.77" width="21" height="31" fill="#359af3"/><rect id="Rectangle_115-2" data-name="Rectangle 115" x="123.83" y="215.77" width="21" height="31" fill="#359af3"/><rect id="Rectangle_116-2" data-name="Rectangle 116" x="174.83" y="215.77" width="21" height="31" fill="#359af3"/><rect id="Rectangle_117-2" data-name="Rectangle 117" x="175.83" y="91.77" width="21" height="31" fill="#359af3"/><rect id="Rectangle_118-2" data-name="Rectangle 118" x="123.83" y="94.77" width="21" height="31" fill="#359af3"/><rect id="Rectangle_119-2" data-name="Rectangle 119" x="42.83" y="153.77" width="21" height="31" fill="#359af3"/><rect id="Rectangle_120-2" data-name="Rectangle 120" x="257.83" y="155.77" width="21" height="31" fill="#359af3"/><rect id="Rectangle_121-2" data-name="Rectangle 121" x="257.83" y="213.77" width="21" height="31" fill="#359af3"/><rect id="Rectangle_122-2" data-name="Rectangle 122" x="257.83" y="276.77" width="21" height="31" fill="#359af3"/><path id="Path_131-2" data-name="Path 131" d="M278.63,329.56,267.53,336l-13.23,6.45-4.41,7.8,4.41,11.19h48.51l6.78-11.19s-3.73-9.5-4.75-9.5H295Z" fill="#04fea0"/><path id="Path_84-2" data-name="Path 84" d="M227,345.12H82.44a5.16,5.16,0,0,0-5.16,5.16V360.6a5.16,5.16,0,0,0,10.32,0v-5.16H227a5.16,5.16,0,0,0,0-10.33Z"/><path id="Path_85-2" data-name="Path 85" d="M118.58,185.07a5.17,5.17,0,0,0,5.17,5.16H144.4a5.17,5.17,0,0,0,5.16-5.16v-31a5.17,5.17,0,0,0-5.16-5.16H123.75a5.17,5.17,0,0,0-5.16,5.16v31Zm10.33-25.81h10.33v20.65H128.91Z"/><path id="Path_86-2" data-name="Path 86" d="M72.12,118h-62A5.17,5.17,0,0,0,5,123.12V226.37a5.16,5.16,0,0,0,10.32,0V128.28H72.12a5.16,5.16,0,1,0,0-10.33Z"/><path id="Path_87-2" data-name="Path 87" d="M252.81,309a5.16,5.16,0,0,0,5.16,5.16h20.65a5.16,5.16,0,0,0,5.16-5.16V278a5.16,5.16,0,0,0-5.16-5.16H258a5.16,5.16,0,0,0-5.16,5.16Zm10.33-25.81h10.33v20.65H263.14Z"/><path id="Path_88-2" data-name="Path 88" d="M30.81,241.86C5.29,241.86,5,308.3,5,309a25.86,25.86,0,0,0,20.65,25.29V360.6a5.16,5.16,0,0,0,10.32,0V334.27A25.86,25.86,0,0,0,56.63,309C56.63,308.3,56.33,241.86,30.81,241.86Zm0,82.6A15.51,15.51,0,0,1,15.33,309c0-25.72,6.91-56.79,15.49-56.79S46.3,283.25,46.3,309a15.51,15.51,0,0,1-15.49,15.48Z"/><path id="Path_89-2" data-name="Path 89" d="M61.79,210.88H41.14A5.17,5.17,0,0,0,36,216v10.33a5.16,5.16,0,1,0,10.33.14s0-.1,0-.14v-5.16H56.63V247A5.16,5.16,0,0,0,67,247V216A5.16,5.16,0,0,0,61.79,210.88Z"/><path id="Path_90-2" data-name="Path 90" d="M258,190.23h20.65a5.17,5.17,0,0,0,5.16-5.16v-31a5.17,5.17,0,0,0-5.16-5.16H258a5.17,5.17,0,0,0-5.16,5.16v31A5.16,5.16,0,0,0,258,190.23Zm5.16-31h10.33V179.9H263.14Z"/><path id="Path_91-2" data-name="Path 91" d="M61.79,148.93H41.14A5.17,5.17,0,0,0,36,154.09v31a5.17,5.17,0,0,0,5.16,5.16H61.79A5.16,5.16,0,0,0,67,185.07v-31A5.16,5.16,0,0,0,61.79,148.93Zm-5.16,31H46.3V159.26H56.63v20.65Z"/><path id="Path_92-2" data-name="Path 92" d="M170.21,185.07a5.17,5.17,0,0,0,5.16,5.16H196a5.17,5.17,0,0,0,5.16-5.16v-31a5.17,5.17,0,0,0-5.16-5.16H175.37a5.17,5.17,0,0,0-5.16,5.16v31Zm10.33-25.81h10.33v20.65H180.53Z"/><path id="Path_93-2" data-name="Path 93" d="M309.6,118H247.65a5.16,5.16,0,0,0-.14,10.32h56.93V335.74a14.75,14.75,0,0,0-7.82-.72,20.62,20.62,0,0,0-36,0,15.18,15.18,0,0,0-2.65-.23,15.49,15.49,0,0,0,0,31h41.3a15.51,15.51,0,0,0,15.49-15.49V123.12A5.17,5.17,0,0,0,309.6,118ZM299.28,355.44H258a5.16,5.16,0,0,1,0-10.33,5.1,5.1,0,0,1,2.8.84,5.16,5.16,0,0,0,7.83-3.17,10.28,10.28,0,0,1,20.05,0,5.16,5.16,0,0,0,7.83,3.17,5.26,5.26,0,0,1,8,4.32A5.17,5.17,0,0,1,299.28,355.44Z"/><path id="Path_94-2" data-name="Path 94" d="M175.37,128.28H196a5.16,5.16,0,0,0,5.16-5.16v-31A5.16,5.16,0,0,0,196,87H175.37a5.16,5.16,0,0,0-5.16,5.16v31A5.16,5.16,0,0,0,175.37,128.28Zm5.16-31h10.33V118H180.53V97.3Z"/><path id="Path_95-2" data-name="Path 95" d="M170.21,247a5.16,5.16,0,0,0,5.16,5.16H196a5.16,5.16,0,0,0,5.16-5.16V216a5.16,5.16,0,0,0-5.16-5.16H175.37a5.16,5.16,0,0,0-5.16,5.16v31Zm10.33-25.81h10.33v20.65H180.53V221.21Z"/><path id="Path_96-2" data-name="Path 96" d="M123.75,128.28H144.4a5.16,5.16,0,0,0,5.16-5.16v-31A5.17,5.17,0,0,0,144.4,87H123.75a5.17,5.17,0,0,0-5.16,5.16v31A5.16,5.16,0,0,0,123.75,128.28Zm5.16-31h10.33V118H128.91Z"/><path id="Path_97-2" data-name="Path 97" d="M156.22,305.31a5.16,5.16,0,1,0,7.33,0A5.43,5.43,0,0,0,156.22,305.31Z"/><path id="Path_98-2" data-name="Path 98" d="M118.58,247a5.17,5.17,0,0,0,5.17,5.16H144.4a5.17,5.17,0,0,0,5.16-5.16V216a5.17,5.17,0,0,0-5.17-5.16H123.75a5.17,5.17,0,0,0-5.16,5.16v31Zm10.33-25.81h10.33v20.65H128.91Z"/><path id="Path_99-2" data-name="Path 99" d="M108.26,278a5.17,5.17,0,0,0,5.16,5.16h15.49v46.46a5.16,5.16,0,0,0,10.32,0V283.16h41.3v46.46a5.16,5.16,0,0,0,10.32,0V283.16h15.49a5.16,5.16,0,0,0,0-10.33H113.42A5.17,5.17,0,0,0,108.26,278Z"/><path id="Path_100-2" data-name="Path 100" d="M252.81,247a5.16,5.16,0,0,0,5.16,5.16h20.65a5.16,5.16,0,0,0,5.16-5.16V216a5.16,5.16,0,0,0-5.16-5.16H258a5.16,5.16,0,0,0-5.16,5.16Zm10.33-25.81h10.33v20.65H263.14Z"/><path id="Path_101-2" data-name="Path 101" d="M227,56H92.77a5.16,5.16,0,0,0-5.16,5.16V329.63a5.16,5.16,0,0,0,10.32,0V66.32h123.9v263.3a5.16,5.16,0,0,0,10.33,0V61.16A5.16,5.16,0,0,0,227,56Z"/></g></g></g><path d="M94.71,9.75a1.33,1.33,0,0,1,1.42-1.42H110c4.26.48,7.23,2.65,7.52,8.35v7.71a10.63,10.63,0,0,1-.4,3.22c-1.1,3.71-3.76,5.55-7.72,5.81h-6v9.44c0,.71-.6,1.06-1.32,1.06H95.9a1.19,1.19,0,0,1-1.32-1.27l.13-32.9Zm8.82,7.32h3.69a1.52,1.52,0,0,1,1.51,1.51V23a1.52,1.52,0,0,1-1.51,1.52h-3.69V17.08Z" fill="#1e398d" fill-rule="evenodd"/><path d="M124.37,8.37h9.7c5.68.33,8.75,3.31,8.67,9.49V40.75a3.39,3.39,0,0,1-3.32,3.12H126.7a7.34,7.34,0,0,1-7-6c-.61-2.83-.15-6.26-.15-9.15,0-4.46,3-8.89,7.88-8.89h5.18c1.51-.08,1.44-3.37,0-3.25h-8.09A1.34,1.34,0,0,1,123,15.36v-6c0-.77.63-1,1.37-1Zm5.35,19.79h3a1.28,1.28,0,0,1,1.27,1.27v5.15a1.28,1.28,0,0,1-1.27,1.27h-3a1.27,1.27,0,0,1-1.27-1.27V29.43a1.27,1.27,0,0,1,1.27-1.27Z" fill="#1e398d" fill-rule="evenodd"/><path d="M145.71,10V24.45a8.86,8.86,0,0,0,8.85,7.93h4.1c1.69,0,1.59,2.85,0,2.85H149.8c-1,0-1.31.5-1.31,1.35v6.37a1.14,1.14,0,0,0,1.2,1.12h8.21c6.84,0,10.74-3.28,10.74-10.64v-24a1,1,0,0,0-1-1.09h-6.88c-.64,0-1,.69-1,1.2V22.68a.79.79,0,0,1-.82.9H155.7a1,1,0,0,1-1.16-1.12V9.76c0-.84-.34-1.46-1.27-1.46h-6.62c-.75,0-.94.75-.94,1.68Z" fill="#1e398d" fill-rule="evenodd"/><path d="M172.09,15.93V9.68a1.22,1.22,0,0,1,1.22-1.22h1.51c3.88-.81,4.8-3.08,7.17-5.64,1.46-1.58,2.74-2,3.68-.32v6h3.55a1.22,1.22,0,0,1,1.22,1.22v6.25a1.23,1.23,0,0,1-1.22,1.22h-3.55V42.77A1.22,1.22,0,0,1,184.44,44h-6.25A1.22,1.22,0,0,1,177,42.77V17.15h-3.66a1.23,1.23,0,0,1-1.22-1.22Z" fill="#00aeef" fill-rule="evenodd"/><path d="M216.38,42.36a1.53,1.53,0,0,1-1.53,1.51H209a1.53,1.53,0,0,1-1.53-1.51V18.85c0-2.54-5.07-2.94-5.07,0V42.36a1.52,1.52,0,0,1-1.53,1.51H195a1.53,1.53,0,0,1-1.53-1.51V9.76A1.53,1.53,0,0,1,195,8.24h5.85a1.53,1.53,0,0,1,1.53,1.52v.45c3.42-3.27,9.36-2.76,12.51.65,5.94-6.81,16.12-.74,15.65,6.73,0,8.26-.07,16.44-.07,24.77A1.53,1.53,0,0,1,229,43.87H223.1a1.53,1.53,0,0,1-1.53-1.51V19c-.33-3.26-5.26-2.5-5.25,0,0,7.76.06,15.52.06,23.36Z" fill="#00aeef" fill-rule="evenodd"/></svg>