<svg xmlns="http://www.w3.org/2000/svg" viewBox="3405.815 4341.319 309.764 309.765">
  <defs>
    <style>
      .cls-1 {
        fill: #f2d61d;
      }

      .cls-2 {
        fill: #f6df11;
      }
    </style>
  </defs>
  <g id="_051-cash" data-name="051-cash" transform="translate(3405.815 4341.319)">
    <g id="Group_40" data-name="Group 40" transform="translate(0 0)">
      <g id="Group_39" data-name="Group 39">
        <path id="Path_139" data-name="Path 139" class="cls-1" d="M161.192,43.394l34.159,14.247L234.7,45.429,195.351,7.1Z"/>
        <path id="Path_140" data-name="Path 140" class="cls-1" d="M113.26,300.183s41.385-32.9,39.349-32.9-44.1-17.639-44.1-17.639L72.893,263.208Z"/>
        <path id="Path_138" data-name="Path 138" class="cls-2" d="M161.192,120.371l-25.387.261-18.787,18,3.914,36.792,38.619,20.092,32.1-13.569,3.653-36.27Z"/>
        <path id="Path_124" data-name="Path 124" d="M307.875,107.09,239.193,38.408l-.013-.013s-.009-.008-.013-.012L202.674,1.891a6.454,6.454,0,0,0-9.127,0L157.062,38.376c-.008.007-.015.012-.021.019s-.013.014-.019.021L38.4,157.038l0,0v0l-36.5,36.5a6.456,6.456,0,0,0,0,9.127l94.181,94.182H90.347a6.454,6.454,0,0,0,0,12.907H111.6l.053,0,.053,0,107.706,0a6.454,6.454,0,1,0,0-12.907l-92.176,0L271.365,152.727l0,0a0,0,0,0,0,0,0l36.5-36.5A6.455,6.455,0,0,0,307.875,107.09ZM198.111,15.58l27.054,27.054a45.188,45.188,0,0,1-54.109,0Zm-86.454,278.6L84.608,267.136a45.267,45.267,0,0,1,54.1,0ZM267.132,138.709a45.019,45.019,0,0,1-8.965-25.432,6.453,6.453,0,1,0-12.9.464A57.872,57.872,0,0,0,257.941,147.9L147.9,257.939a57.564,57.564,0,0,0-11.223-7.031l6.2-6.2a6.453,6.453,0,1,0-9.127-9.126l-10.779,10.78a58.13,58.13,0,0,0-47.56,11.573L15.581,198.11l27.053-27.054A45.015,45.015,0,0,1,51.6,196.49a6.453,6.453,0,0,0,6.445,6.222c.078,0,.157,0,.235,0a6.452,6.452,0,0,0,6.218-6.681,57.874,57.874,0,0,0-12.673-34.16L161.863,51.828a57.786,57.786,0,0,0,11.2,7.054l-6.172,6.171a6.453,6.453,0,1,0,9.126,9.127l10.747-10.747a58.729,58.729,0,0,0,11.347,1.1,57.634,57.634,0,0,0,36.248-12.707l59.826,59.826Z" transform="translate(-0.001 -0.001)"/>
        <path id="Path_125" data-name="Path 125" d="M88.477,344.908a6.458,6.458,0,0,0-8.2,4c-.31.9-.656,1.809-1.024,2.691a6.454,6.454,0,1,0,11.913,4.97c.473-1.133.915-2.3,1.315-3.456A6.453,6.453,0,0,0,88.477,344.908Z" transform="translate(-31.106 -136.096)"/>
        <path id="Path_126" data-name="Path 126" d="M256.134,196.354c-9.966-9.965-23.172-15.682-36.233-15.682a39.216,39.216,0,0,0-28.036,11.2c-8.127,8.127-12.05,19.4-11.046,31.729a52.371,52.371,0,0,0,15.532,32.539c9.965,9.967,23.171,15.683,36.232,15.683a39.216,39.216,0,0,0,28.036-11.2c8.128-8.127,12.05-19.4,11.046-31.729A52.36,52.36,0,0,0,256.134,196.354Zm-4.64,55.142a26.414,26.414,0,0,1-18.911,7.417c-9.663,0-19.542-4.339-27.106-11.9a39.461,39.461,0,0,1-11.793-24.459c-.692-8.5,1.9-16.151,7.308-21.555a26.411,26.411,0,0,1,18.91-7.416c9.663,0,19.542,4.338,27.106,11.9A39.463,39.463,0,0,1,258.8,229.94C259.493,238.437,256.9,246.092,251.494,251.5Z" transform="translate(-71.361 -71.364)"/>
        <path id="Path_127" data-name="Path 127" d="M252.022,142.67a6.436,6.436,0,0,0,4.564-1.89l2.738-2.738a6.454,6.454,0,1,0-9.127-9.127l-2.738,2.738a6.454,6.454,0,0,0,4.563,11.017Z" transform="translate(-96.997 -50.174)"/>
        <path id="Path_128" data-name="Path 128" d="M245.2,361l-2.739,2.739a6.454,6.454,0,0,0,9.127,9.127l2.739-2.739A6.454,6.454,0,1,0,245.2,361Z" transform="translate(-95.023 -141.845)"/>
        <path id="Path_129" data-name="Path 129" d="M414.329,156.654a6.447,6.447,0,0,0,8.2-4c.312-.909.657-1.813,1.022-2.686a6.454,6.454,0,1,0-11.908-4.979c-.471,1.127-.914,2.292-1.317,3.461A6.454,6.454,0,0,0,414.329,156.654Z" transform="translate(-161.937 -55.703)"/>
        <ellipse id="Ellipse_2693" data-name="Ellipse 2693" cx="12.906" cy="12.906" rx="12.906" ry="12.906" transform="translate(89.271 194.683)"/>
        <ellipse id="Ellipse_2694" data-name="Ellipse 2694" cx="12.907" cy="12.907" rx="12.907" ry="12.907" transform="translate(194.681 89.271)"/>
      </g>
    </g>
  </g>
</svg>
