<svg xmlns="http://www.w3.org/2000/svg" viewBox="3426 3482.298 289.114 309.642">
  <defs>
    <style>
      .cls-1 {
        fill: #f6df11;
      }

      .cls-2 {
        fill: #357bf3;
      }
    </style>
  </defs>
  <g id="diploma" transform="translate(3426 3482.298)">
    <g id="Group_36" data-name="Group 36" transform="translate(0)">
      <g id="Group_35" data-name="Group 35">
        <ellipse id="Ellipse_2695" data-name="Ellipse 2695" class="cls-1" cx="25" cy="24" rx="25" ry="24" transform="translate(202 213.702)"/>
        <path id="Path_102" data-name="Path 102" d="M307.1,175.634a5.161,5.161,0,0,0,5.163,5.163h51.627a5.163,5.163,0,0,0,0-10.325H312.261A5.16,5.16,0,0,0,307.1,175.634Z" transform="translate(-131.564 -67.334)"/>
        <path id="Path_103" data-name="Path 103" d="M358.3,226.834A5.161,5.161,0,0,0,363.461,232h30.977a5.163,5.163,0,0,0,0-10.325H363.461A5.16,5.16,0,0,0,358.3,226.834Z" transform="translate(-151.787 -87.558)"/>
        <path id="Path_104" data-name="Path 104" d="M339.652,129.6a5.163,5.163,0,1,0,0-10.325H329.327a5.163,5.163,0,1,0,0,10.325Z" transform="translate(-138.305 -47.111)"/>
        <path id="Path_105" data-name="Path 105" d="M243.994,221.67a5.163,5.163,0,1,0,0,10.325h51.627a5.163,5.163,0,1,0,0-10.325Z" transform="translate(-104.599 -87.557)"/>
        <path id="Path_106" data-name="Path 106" d="M195.655,292.075H97.563a15.507,15.507,0,0,1-15.488-15.488V39.1a5.161,5.161,0,0,0-5.163-5.163A25.843,25.843,0,0,0,51.1,59.751a5.163,5.163,0,0,0,10.325,0A15.518,15.518,0,0,1,71.749,45.145V276.587A25.843,25.843,0,0,0,97.563,302.4h98.092a5.163,5.163,0,0,0,0-10.326Z" transform="translate(-30.447 -13.405)"/>
        <path id="Path_107" data-name="Path 107" d="M158.661,180.8h72.279a5.163,5.163,0,1,0,0-10.325H158.661a5.163,5.163,0,0,0,0,10.325Z" transform="translate(-70.893 -67.334)"/>
        <path id="Path_108" data-name="Path 108" d="M158.661,129.6h20.651a5.163,5.163,0,0,0,0-10.325H158.661a5.163,5.163,0,0,0,0,10.325Z" transform="translate(-70.893 -47.111)"/>
        <path id="Path_109" data-name="Path 109" d="M268.229,119.27h-41.3a5.163,5.163,0,0,0,0,10.325h41.3a5.163,5.163,0,1,0,0-10.325Z" transform="translate(-97.858 -47.11)"/>
        <path id="Path_110" data-name="Path 110" d="M259.614,0H63.429A46.52,46.52,0,0,0,16.964,46.284v.243A46.649,46.649,0,0,0,40.191,86.59a5.161,5.161,0,0,0,5.173-8.932A36.071,36.071,0,0,1,63.429,10.326H259.614a36.182,36.182,0,0,1,36.139,36.139V263.3a15.025,15.025,0,0,1-2.111,7.589,5.163,5.163,0,0,0,8.9,5.235,25.322,25.322,0,0,0,3.536-12.824V46.465A46.514,46.514,0,0,0,259.614,0Z" transform="translate(-16.964)"/>
        <path id="Path_111" data-name="Path 111" d="M403.184,372.114a30.977,30.977,0,1,0-30.977,30.977A31.008,31.008,0,0,0,403.184,372.114Zm-30.977,20.651a20.651,20.651,0,1,1,20.651-20.651A20.672,20.672,0,0,1,372.208,392.764Z" transform="translate(-145.046 -134.745)"/>
        <path id="Path_112" data-name="Path 112" d="M350.308,444.685a5.168,5.168,0,0,0-7.053,1.889L332.14,465.837l-1.765-2.664a5.136,5.136,0,0,0-4-2.307l-3.191-.191,11.3-19.567a5.165,5.165,0,0,0-8.947-5.163l-15.473,26.8a5.163,5.163,0,0,0,4.166,7.733l8.947.537,4.941,7.481a5.155,5.155,0,0,0,4.306,2.318h.16a5.189,5.189,0,0,0,4.316-2.582l15.3-26.5A5.161,5.161,0,0,0,350.308,444.685Z" transform="translate(-132.466 -171.172)"/>
        <path id="Path_113" data-name="Path 113" d="M431.086,436.345a5.165,5.165,0,0,0-8.948,5.163l11.167,19.324-3.191.191a5.184,5.184,0,0,0-4,2.307l-1.755,2.664L413.3,446.83a5.165,5.165,0,0,0-8.947,5.163l15.24,26.4a5.189,5.189,0,0,0,4.316,2.582h.16a5.178,5.178,0,0,0,4.311-2.318l4.936-7.475,8.942-.542a5.164,5.164,0,0,0,4.167-7.733Z" transform="translate(-169.705 -171.331)"/>
        <path id="Path_114" data-name="Path 114" d="M158.661,232h30.977a5.163,5.163,0,1,0,0-10.325H158.661a5.163,5.163,0,0,0,0,10.325Z" transform="translate(-70.893 -87.558)"/>
        <path id="Path_115" data-name="Path 115" d="M158.661,283.2h61.953a5.163,5.163,0,0,0,0-10.325H158.661a5.163,5.163,0,1,0,0,10.325Z" transform="translate(-70.893 -107.781)"/>
        <path id="Path_116" data-name="Path 116" class="cls-2" d="M159.079,367.68a5.16,5.16,0,1,0,9.231-4.616c-5.111-10.222-6.257-19.391-3.077-24.539,1.693-2.741,4.646-4.13,8.787-4.13,2.462,0,3.381.846,3.96,1.673,3.846,5.545.191,22.432-3.634,32.654a5.164,5.164,0,0,0,8.488,5.463c2.2-2.2,4.6-4.394,6.676-6.175v2.525a5.164,5.164,0,0,0,8.813,3.65,64.551,64.551,0,0,1,7.4-6.324c-.062.129-.124.253-.186.372a5.17,5.17,0,0,0,4.626,7.465H230.81a5.163,5.163,0,1,0,0-10.325H217.372a9.971,9.971,0,0,0-.929-6.97,7.181,7.181,0,0,0-6.283-3.356c-3.191,0-6.944,1.941-10.372,4.347a5.963,5.963,0,0,0-3.619-4.941c-1.378-.568-3.155-1.311-7.465,1.275,1.7-8.9,2.194-19.149-2.236-25.54-1.936-2.793-5.664-6.118-12.448-6.118-7.734,0-13.976,3.206-17.574,9.03C151.3,341.433,152.254,354.035,159.079,367.68Z" transform="translate(-70.765 -128.005)"/>
        <path id="Path_117" data-name="Path 117" d="M351.984,278.034a5.161,5.161,0,0,0-5.163-5.163H295.195a5.163,5.163,0,1,0,0,10.325h51.627A5.161,5.161,0,0,0,351.984,278.034Z" transform="translate(-124.823 -107.781)"/>
      </g>
    </g>
  </g>
</svg>
