<svg xmlns="http://www.w3.org/2000/svg" viewBox="2153.454 4009.024 283.95 309.765">
  <defs>
    <style>
      .cls-1 {
        fill: #941aff;
      }

      .cls-2 {
        fill: #f33562;
      }
    </style>
  </defs>
  <g id="_051-package" data-name="051-package" transform="translate(2153.454 4009.024)">
    <g id="Group_38" data-name="Group 38" transform="translate(0 0)">
      <g id="Group_37" data-name="Group 37">
        <path id="Path_137" data-name="Path 137" class="cls-1" d="M272.283,89.22l-47.626,26.018v35.279l53.8-32.192Z"/>
        <path id="Path_136" data-name="Path 136" class="cls-1" d="M89.477,135.889,87.129,166.68l54.014,30.791L143.23,159.9,90.782,135.889Z"/>
        <path id="Path_132" data-name="Path 132" class="cls-2" d="M63.127,121.8l-3.392,29.747L85.307,161.98l3.653-32.356Z" transform="translate(2)"/>
        <path id="Path_133" data-name="Path 133" class="cls-2" d="M63.127,121.8l-3.392,29.747L85.307,161.98l3.653-32.356Z" transform="translate(126.018 278.694) rotate(-121)"/>
        <path id="Path_134" data-name="Path 134" class="cls-2" d="M62.7,121.8l-2.966,25.283,22.357,8.871,3.194-27.5Z" transform="translate(128.126 310.545) rotate(-121)"/>
        <path id="Path_135" data-name="Path 135" class="cls-2" d="M62.7,121.8l-2.966,25.283,22.357,8.871,3.194-27.5Z" transform="matrix(-0.995, 0.105, -0.105, -0.995, 163.447, 305.399)"/>
        <path id="Path_118" data-name="Path 118" d="M71.587,153.613l-3.112-1.8a6.454,6.454,0,0,0-6.456,11.176l3.112,1.8a6.454,6.454,0,0,0,6.456-11.176Z" transform="translate(-36.13 -59.625)"/>
        <path id="Path_119" data-name="Path 119" d="M305.281,84.643a6.465,6.465,0,0,0-.051-.792c0-.014-.007-.029-.008-.043a6.748,6.748,0,0,0-.144-.71c-.015-.064-.035-.125-.051-.188q-.084-.285-.193-.564c-.024-.062-.047-.123-.071-.185a6.4,6.4,0,0,0-.341-.69,6.229,6.229,0,0,0-.426-.638c-.041-.055-.085-.106-.127-.16q-.185-.231-.387-.442c-.047-.049-.094-.1-.143-.146a6.224,6.224,0,0,0-.529-.466l-.048-.041a6.5,6.5,0,0,0-.652-.436c-.018-.01-.033-.023-.05-.033L166.536.867a6.452,6.452,0,0,0-6.454,0L79.267,47.526l-.005,0L24.561,79.11A6.453,6.453,0,0,0,21.334,84.7v34.693a6.453,6.453,0,0,0,3.227,5.588l3.749,2.165V229.1a6.453,6.453,0,0,0,3.227,5.588L160.081,308.9c.016.01.036.016.051.025a6.51,6.51,0,0,0,.708.348c.016.007.035.012.05.019a6.4,6.4,0,0,0,.677.228c.065.018.128.033.194.05.189.047.384.085.578.114.067.01.134.022.2.03a5.95,5.95,0,0,0,1.534,0c.067-.008.132-.02.2-.03.2-.03.39-.067.58-.114.066-.016.129-.032.194-.05a6.688,6.688,0,0,0,.677-.228c.016-.007.035-.012.05-.019a6.456,6.456,0,0,0,.708-.348c.016-.01.035-.016.05-.025l128.544-74.214A6.453,6.453,0,0,0,298.3,229.1V127.145l3.752-2.167a6.453,6.453,0,0,0,3.227-5.588V84.7A.534.534,0,0,0,305.281,84.643Zm-19.357.055-41.95,24.219L202.027,84.7l41.95-24.219Zm-116.17,78.07c0-.13-.008-.261-.019-.39-.009-.1-.022-.2-.036-.293s-.029-.211-.048-.316-.047-.224-.073-.335c-.021-.089-.042-.177-.068-.265-.033-.116-.07-.229-.109-.342-.029-.084-.059-.168-.093-.25-.041-.108-.088-.213-.136-.318-.041-.089-.082-.176-.127-.263s-.1-.182-.148-.271-.114-.191-.173-.284c-.049-.076-.1-.149-.152-.223-.07-.1-.144-.2-.22-.293-.051-.065-.1-.126-.157-.188-.083-.1-.168-.19-.255-.281-.059-.061-.12-.12-.181-.178-.087-.083-.174-.164-.266-.242s-.157-.128-.238-.191-.163-.125-.249-.185c-.1-.072-.211-.14-.319-.206-.051-.031-.1-.067-.151-.1l-45.174-26.081,41.945-24.217,41.948,24.217-8.716,5.032a6.453,6.453,0,1,0,6.452,11.178l8.717-5.033v19.791l-41.946,24.217V162.944C169.763,162.883,169.756,162.826,169.754,162.768Zm-12.9,3.9v19.789l-41.948-24.219V142.448ZM176.214,99.6l12.905-7.452,41.947,24.218-12.905,7.451ZM220.606,172l12.907-7.452v14.172a6.45,6.45,0,0,0-6.259,1.818l-6.648,7.022V172Zm4.01-17.217V135l12.905-7.451v19.79l-.627.361-.015.009ZM163.309,13.907,231.07,53.028,108.455,123.819l-12.905-7.451,45.114-26.049.02-.011L166.46,75.425l.058-.034,13.914-8.033a6.453,6.453,0,0,0-6.454-11.178L163.3,62.343,121.36,38.125ZM93.1,164.551,106.011,172v15.563l-6.649-7.022a6.451,6.451,0,0,0-6.259-1.818V164.551ZM89.1,147.334V127.546L102,135v19.789ZM108.453,45.578,150.4,69.8l-12.905,7.451L95.548,53.03ZM34.241,88.423l48.4-27.943L124.587,84.7,82.642,108.916l-9.32-5.381a6.453,6.453,0,0,0-6.454,11.178l9.32,5.381v19.788L34.241,115.663V88.423ZM285.4,225.374h0L169.763,292.136V240.449a6.454,6.454,0,1,0-12.907,0v51.687L41.218,225.374V134.6L80.2,157.1v30.966c0,.053.007.1.008.157,0,.134.009.267.02.4.009.095.02.189.033.283.015.111.03.222.05.332s.049.234.077.35c.021.085.041.169.066.254.039.137.085.27.132.4.016.045.027.091.044.136.009.023.02.045.03.067.051.132.111.261.172.39.034.07.067.142.1.211.057.106.117.21.178.313.05.085.1.171.154.253s.107.153.163.229c.07.1.142.2.217.289.047.057.1.111.145.166.09.1.178.205.275.3.047.048.1.093.146.139.1.1.2.191.308.279.059.05.123.1.185.144.1.077.2.154.3.225.08.056.165.1.247.156s.178.114.272.165.2.1.3.152c.083.041.165.083.25.12.106.046.215.086.324.126.087.033.174.067.262.1s.2.059.306.087.208.058.313.08c.086.019.172.032.26.047.127.022.255.044.386.059.07.008.143.012.214.018.146.012.292.021.44.022.024,0,.048,0,.071,0,.047,0,.091-.006.137-.007.143,0,.284-.009.428-.021.088-.008.174-.019.262-.031.116-.015.232-.031.349-.053s.227-.047.339-.074c.087-.021.174-.042.262-.068.135-.039.269-.084.4-.131.045-.016.091-.027.136-.045l4-1.536,14.819,15.653c.019.02.041.038.061.058.091.093.186.18.283.268.066.061.131.124.2.182.094.079.193.151.291.224.076.057.149.117.226.17.1.068.206.128.311.192.078.047.155.1.234.143.185.1.377.193.572.277.016.007.034.011.05.018.182.075.367.144.555.2.033.01.066.016.1.025.173.05.347.1.525.133.061.012.122.017.182.028.149.026.3.052.454.067.194.019.39.028.587.03.019,0,.038,0,.058,0h0c.209,0,.418-.012.627-.031.082-.008.16-.022.241-.033.125-.017.25-.033.375-.057.093-.018.185-.042.278-.066.108-.027.217-.051.325-.083.094-.028.184-.061.276-.094s.206-.071.309-.114.176-.077.263-.117.2-.093.3-.145.169-.094.252-.143.189-.11.281-.171.166-.116.249-.175.171-.122.252-.188.166-.141.247-.212c.054-.047.11-.09.163-.139.021-.02.039-.042.059-.062.083-.081.163-.167.242-.254s.136-.145.2-.22.128-.164.192-.246.135-.172.2-.261.1-.16.151-.241c.061-.1.123-.194.178-.294.047-.085.086-.172.128-.259s.1-.2.145-.3.077-.2.115-.3.073-.187.1-.283.059-.215.088-.322.051-.189.073-.284.037-.208.054-.313.036-.21.048-.315.015-.194.021-.292c.009-.118.016-.235.018-.354,0-.028,0-.056,0-.085V179.453l41.164,23.767c.016.01.036.016.051.025a6.513,6.513,0,0,0,.708.348c.016.007.034.012.05.019a6.541,6.541,0,0,0,.677.229c.065.018.128.033.194.05.189.047.384.085.578.114.067.01.134.022.2.03a5.95,5.95,0,0,0,1.534,0c.067-.008.132-.02.2-.03.2-.03.39-.067.58-.114.066-.016.129-.032.194-.05a6.544,6.544,0,0,0,.677-.229c.016-.007.034-.012.05-.019a6.462,6.462,0,0,0,.708-.348c.016-.01.034-.016.05-.025L207.7,179.455v24.313c0,.029,0,.057,0,.085,0,.119.01.235.018.354.008.1.012.2.022.292s.03.21.048.315.031.211.054.313.048.19.073.284.054.217.088.322.068.189.1.283.071.2.115.3.1.2.144.3.083.175.129.259c.054.1.117.2.178.294.049.08.1.163.151.241s.128.174.194.261.125.167.193.246.131.147.2.22.157.172.242.253c.02.02.038.042.059.062.053.05.109.093.164.14.079.071.16.143.244.21s.171.131.257.193.159.116.242.17.193.119.291.176c.079.047.159.094.241.137.1.054.206.1.31.149.085.039.168.077.254.113.106.042.212.079.319.117.09.031.177.064.267.09.111.033.222.059.333.086.091.021.178.045.271.064.126.025.253.041.381.058.078.011.155.025.234.033.209.02.418.031.628.031h0l.058,0c.2,0,.391-.01.587-.03.152-.015.3-.041.45-.067.062-.011.123-.016.185-.028.175-.036.345-.081.515-.13.036-.011.071-.017.107-.028.18-.056.357-.122.529-.192.027-.011.053-.018.078-.028.194-.083.385-.175.57-.275.087-.047.171-.1.255-.155s.2-.116.29-.178.157-.117.237-.176c.094-.071.191-.141.281-.216.069-.059.136-.123.2-.185.1-.087.191-.174.28-.265.019-.02.041-.038.061-.058l14.818-15.653,3.995,1.536c.048.018.1.03.144.047.128.046.258.09.39.128.09.026.178.047.27.069.109.027.22.051.332.073s.235.039.355.054c.086.011.173.022.26.03.143.013.284.018.426.021.047,0,.094.007.14.007.025,0,.048,0,.073,0,.145,0,.289-.01.434-.022.074-.006.148-.01.222-.018.126-.014.251-.036.374-.057.091-.016.181-.03.271-.049s.2-.05.3-.077.214-.056.319-.09c.083-.027.165-.06.247-.091.114-.042.229-.083.339-.131.079-.036.157-.076.235-.114.106-.051.213-.1.315-.159s.176-.106.264-.161.172-.1.255-.159c.1-.071.2-.148.3-.226.061-.048.125-.093.184-.143.108-.09.211-.187.312-.284.047-.045.1-.087.14-.132.1-.1.192-.205.283-.311.045-.052.093-.1.136-.156.078-.1.151-.2.224-.3.051-.071.106-.143.155-.217s.108-.175.16-.264.119-.2.172-.3c.038-.073.073-.148.108-.223.059-.124.116-.25.168-.378.009-.024.021-.046.03-.07.019-.047.03-.1.047-.142.047-.129.091-.26.129-.394.025-.087.045-.174.067-.261.028-.114.054-.228.076-.342s.037-.226.05-.338c.013-.093.025-.185.033-.278.012-.136.018-.27.02-.405,0-.051.008-.1.008-.154V157.1l13.166-7.6v20.254a6.454,6.454,0,1,0,12.907,0V142.05L285.4,134.6v90.775Zm6.976-109.71-3.6,2.08h0l-25.8,14.9-.029.016-12.514,7.224V120.094l41.95-24.219v19.789Z" transform="translate(-21.334 -0.003)"/>
        <path id="Path_120" data-name="Path 120" d="M280.056,254.075a6.432,6.432,0,0,0,3.217-.864l3.08-1.777a6.454,6.454,0,0,0-6.448-11.181l-3.08,1.777a6.454,6.454,0,0,0,3.231,12.045Z" transform="translate(-120.974 -94.558)"/>
        <path id="Path_121" data-name="Path 121" d="M301.632,87.566a6.426,6.426,0,0,0,3.22-.866l3.33-1.923A6.453,6.453,0,0,0,301.729,73.6l-3.33,1.923a6.454,6.454,0,0,0,3.233,12.043Z" transform="translate(-129.497 -28.731)"/>
        <path id="Path_122" data-name="Path 122" d="M251.786,349.046a6.455,6.455,0,0,0-6.454,6.454v3.871a6.454,6.454,0,1,0,12.907,0V355.5A6.454,6.454,0,0,0,251.786,349.046Z" transform="translate(-109.811 -137.871)"/>
        <path id="Path_123" data-name="Path 123" d="M421.586,301.226a6.454,6.454,0,0,0-6.454,6.454v3.872a6.454,6.454,0,1,0,12.907,0V307.68A6.455,6.455,0,0,0,421.586,301.226Z" transform="translate(-176.88 -118.983)"/>
      </g>
    </g>
  </g>
</svg>
